HIERARCHY
ROOT mixamorig:Hips
{
	OFFSET -0.000008 104.274872 1.554316
	CHANNELS 6 Xposition Yposition Zposition Xrotation Yrotation Zrotation
	JOINT mixamorig:Spine
	{
		OFFSET -0.000005 10.181595 0.131519
		CHANNELS 6 Xposition Yposition Zposition Xrotation Yrotation Zrotation
		JOINT mixamorig:Spine1
		{
			OFFSET -0.000000 9.893959 -1.470707
			CHANNELS 6 Xposition Yposition Zposition Xrotation Yrotation Zrotation
			JOINT mixamorig:Spine2
			{
				OFFSET -0.000000 9.220757 -1.370641
				CHANNELS 6 Xposition Yposition Zposition Xrotation Yrotation Zrotation
				JOINT mixamorig:Neck
				{
					OFFSET 0.000001 16.740417 -2.049036
					CHANNELS 6 Xposition Yposition Zposition Xrotation Yrotation Zrotation
					JOINT mixamorig:Head
					{
						OFFSET 0.000000 9.617874 1.685006
						CHANNELS 6 Xposition Yposition Zposition Xrotation Yrotation Zrotation
						JOINT mixamorig:HeadTop_End
						{
							OFFSET 0.000002 22.037354 7.501101
							CHANNELS 6 Xposition Yposition Zposition Xrotation Yrotation Zrotation
							End Site
							{
								OFFSET 0.000168 2310.654297 -282.823242
							}
						}
					}
				}
				JOINT mixamorig:RightShoulder
				{
					OFFSET -4.569970 11.014908 -2.160885
					CHANNELS 6 Xposition Yposition Zposition Xrotation Yrotation Zrotation
					JOINT mixamorig:RightArm
					{
						OFFSET -10.592851 -0.524811 -2.232101
						CHANNELS 6 Xposition Yposition Zposition Xrotation Yrotation Zrotation
						JOINT mixamorig:RightForeArm
						{
							OFFSET -27.841511 0.000031 -0.000004
							CHANNELS 6 Xposition Yposition Zposition Xrotation Yrotation Zrotation
							JOINT mixamorig:RightHand
							{
								OFFSET -28.328831 -0.000015 0.000015
								CHANNELS 6 Xposition Yposition Zposition Xrotation Yrotation Zrotation
								JOINT mixamorig:RightHandThumb1
								{
									OFFSET -2.464806 -1.573990 2.681852
									CHANNELS 6 Xposition Yposition Zposition Xrotation Yrotation Zrotation
									JOINT mixamorig:RightHandThumb2
									{
										OFFSET -3.215179 -1.872803 1.924282
										CHANNELS 6 Xposition Yposition Zposition Xrotation Yrotation Zrotation
										JOINT mixamorig:RightHandThumb3
										{
											OFFSET -2.654831 -1.527969 1.512609
											CHANNELS 6 Xposition Yposition Zposition Xrotation Yrotation Zrotation
											JOINT mixamorig:RightHandThumb4
											{
												OFFSET -2.018814 -1.152008 1.108052
												CHANNELS 6 Xposition Yposition Zposition Xrotation Yrotation Zrotation
												End Site
												{
													OFFSET -188.809540 -114.533607 132.431396
												}
											}
										}
									}
								}
								JOINT mixamorig:RightHandIndex1
								{
									OFFSET -9.108284 -0.517868 2.259835
									CHANNELS 6 Xposition Yposition Zposition Xrotation Yrotation Zrotation
									JOINT mixamorig:RightHandIndex2
									{
										OFFSET -3.699989 0.000000 0.001215
										CHANNELS 6 Xposition Yposition Zposition Xrotation Yrotation Zrotation
										JOINT mixamorig:RightHandIndex3
										{
											OFFSET -2.850006 0.000031 -0.000522
											CHANNELS 6 Xposition Yposition Zposition Xrotation Yrotation Zrotation
											JOINT mixamorig:RightHandIndex4
											{
												OFFSET -2.772186 -0.000015 -0.000020
												CHANNELS 6 Xposition Yposition Zposition Xrotation Yrotation Zrotation
												End Site
												{
													OFFSET -277.218445 0.000000 -0.050231
												}
											}
										}
									}
								}
								JOINT mixamorig:RightHandMiddle1
								{
									OFFSET -9.532516 -0.000031 -0.000023
									CHANNELS 6 Xposition Yposition Zposition Xrotation Yrotation Zrotation
									JOINT mixamorig:RightHandMiddle2
									{
										OFFSET -3.700005 -0.000015 0.003713
										CHANNELS 6 Xposition Yposition Zposition Xrotation Yrotation Zrotation
										JOINT mixamorig:RightHandMiddle3
										{
											OFFSET -2.949974 0.000015 -0.002054
											CHANNELS 6 Xposition Yposition Zposition Xrotation Yrotation Zrotation
											JOINT mixamorig:RightHandMiddle4
											{
												OFFSET -2.946640 0.000000 -0.000156
												CHANNELS 6 Xposition Yposition Zposition Xrotation Yrotation Zrotation
												End Site
												{
													OFFSET -294.664337 0.000000 -0.113670
												}
											}
										}
									}
								}
								JOINT mixamorig:RightHandRing1
								{
									OFFSET -9.103600 -0.043076 -1.865134
									CHANNELS 6 Xposition Yposition Zposition Xrotation Yrotation Zrotation
									JOINT mixamorig:RightHandRing2
									{
										OFFSET -3.379288 0.000000 -0.001055
										CHANNELS 6 Xposition Yposition Zposition Xrotation Yrotation Zrotation
										JOINT mixamorig:RightHandRing3
										{
											OFFSET -2.889687 -0.000015 0.000379
											CHANNELS 6 Xposition Yposition Zposition Xrotation Yrotation Zrotation
											JOINT mixamorig:RightHandRing4
											{
												OFFSET -2.638809 -0.000015 0.000941
												CHANNELS 6 Xposition Yposition Zposition Xrotation Yrotation Zrotation
												End Site
												{
													OFFSET -263.880371 0.000000 0.516020
												}
											}
										}
									}
								}
								JOINT mixamorig:RightHandPinky1
								{
									OFFSET -8.076683 -0.486710 -3.806280
									CHANNELS 6 Xposition Yposition Zposition Xrotation Yrotation Zrotation
									JOINT mixamorig:RightHandPinky2
									{
										OFFSET -3.600014 -0.000015 -0.003747
										CHANNELS 6 Xposition Yposition Zposition Xrotation Yrotation Zrotation
										JOINT mixamorig:RightHandPinky3
										{
											OFFSET -2.099983 0.000000 -0.005739
											CHANNELS 6 Xposition Yposition Zposition Xrotation Yrotation Zrotation
											JOINT mixamorig:RightHandPinky4
											{
												OFFSET -2.115768 -0.000031 -0.003680
												CHANNELS 6 Xposition Yposition Zposition Xrotation Yrotation Zrotation
												End Site
												{
													OFFSET -211.577087 0.000000 -0.350686
												}
											}
										}
									}
								}
							}
						}
					}
				}
				JOINT mixamorig:LeftShoulder
				{
					OFFSET 4.570447 11.014725 -2.160855
					CHANNELS 6 Xposition Yposition Zposition Xrotation Yrotation Zrotation
					JOINT mixamorig:LeftArm
					{
						OFFSET 10.592371 -0.524597 -2.232119
						CHANNELS 6 Xposition Yposition Zposition Xrotation Yrotation Zrotation
						JOINT mixamorig:LeftForeArm
						{
							OFFSET 27.841532 -0.000031 0.000026
							CHANNELS 6 Xposition Yposition Zposition Xrotation Yrotation Zrotation
							JOINT mixamorig:LeftHand
							{
								OFFSET 28.328846 -0.000061 0.000022
								CHANNELS 6 Xposition Yposition Zposition Xrotation Yrotation Zrotation
								JOINT mixamorig:LeftHandThumb1
								{
									OFFSET 2.466141 -1.576172 2.681732
									CHANNELS 6 Xposition Yposition Zposition Xrotation Yrotation Zrotation
									JOINT mixamorig:LeftHandThumb2
									{
										OFFSET 3.217812 -1.872070 1.916482
										CHANNELS 6 Xposition Yposition Zposition Xrotation Yrotation Zrotation
										JOINT mixamorig:LeftHandThumb3
										{
											OFFSET 2.656029 -1.528778 1.514513
											CHANNELS 6 Xposition Yposition Zposition Xrotation Yrotation Zrotation
											JOINT mixamorig:LeftHandThumb4
											{
												OFFSET 2.020889 -1.154053 1.115139
												CHANNELS 6 Xposition Yposition Zposition Xrotation Yrotation Zrotation
												End Site
												{
													OFFSET 190.885437 -115.081749 130.048782
												}
											}
										}
									}
								}
								JOINT mixamorig:LeftHandIndex1
								{
									OFFSET 9.109314 -0.518021 2.259871
									CHANNELS 6 Xposition Yposition Zposition Xrotation Yrotation Zrotation
									JOINT mixamorig:LeftHandIndex2
									{
										OFFSET 3.699989 0.000000 -0.000322
										CHANNELS 6 Xposition Yposition Zposition Xrotation Yrotation Zrotation
										JOINT mixamorig:LeftHandIndex3
										{
											OFFSET 2.850006 0.000000 0.000352
											CHANNELS 6 Xposition Yposition Zposition Xrotation Yrotation Zrotation
											JOINT mixamorig:LeftHandIndex4
											{
												OFFSET 2.774864 -0.000031 -0.000027
												CHANNELS 6 Xposition Yposition Zposition Xrotation Yrotation Zrotation
												End Site
												{
													OFFSET 277.486267 0.000000 -0.009857
												}
											}
										}
									}
								}
								JOINT mixamorig:LeftHandMiddle1
								{
									OFFSET 9.533394 0.000061 0.000044
									CHANNELS 6 Xposition Yposition Zposition Xrotation Yrotation Zrotation
									JOINT mixamorig:LeftHandMiddle2
									{
										OFFSET 3.699989 -0.000015 -0.000231
										CHANNELS 6 Xposition Yposition Zposition Xrotation Yrotation Zrotation
										JOINT mixamorig:LeftHandMiddle3
										{
											OFFSET 2.949997 -0.000015 -0.000059
											CHANNELS 6 Xposition Yposition Zposition Xrotation Yrotation Zrotation
											JOINT mixamorig:LeftHandMiddle4
											{
												OFFSET 2.952896 0.000031 0.000063
												CHANNELS 6 Xposition Yposition Zposition Xrotation Yrotation Zrotation
												End Site
												{
													OFFSET 295.289337 0.000000 0.022810
												}
											}
										}
									}
								}
								JOINT mixamorig:LeftHandRing1
								{
									OFFSET 9.104523 -0.042999 -1.865074
									CHANNELS 6 Xposition Yposition Zposition Xrotation Yrotation Zrotation
									JOINT mixamorig:LeftHandRing2
									{
										OFFSET 3.150009 -0.000031 0.000043
										CHANNELS 6 Xposition Yposition Zposition Xrotation Yrotation Zrotation
										JOINT mixamorig:LeftHandRing3
										{
											OFFSET 2.949982 -0.000015 0.000040
											CHANNELS 6 Xposition Yposition Zposition Xrotation Yrotation Zrotation
											JOINT mixamorig:LeftHandRing4
											{
												OFFSET 2.644348 0.000000 0.000057
												CHANNELS 6 Xposition Yposition Zposition Xrotation Yrotation Zrotation
												End Site
												{
													OFFSET 264.434631 0.000000 0.012105
												}
											}
										}
									}
								}
								JOINT mixamorig:LeftHandPinky1
								{
									OFFSET 8.077789 -0.486847 -3.806259
									CHANNELS 6 Xposition Yposition Zposition Xrotation Yrotation Zrotation
									JOINT mixamorig:LeftHandPinky2
									{
										OFFSET 3.599953 0.000031 0.014727
										CHANNELS 6 Xposition Yposition Zposition Xrotation Yrotation Zrotation
										JOINT mixamorig:LeftHandPinky3
										{
											OFFSET 2.100021 0.000015 0.007705
											CHANNELS 6 Xposition Yposition Zposition Xrotation Yrotation Zrotation
											JOINT mixamorig:LeftHandPinky4
											{
												OFFSET 2.125504 0.000031 0.007517
												CHANNELS 6 Xposition Yposition Zposition Xrotation Yrotation Zrotation
												End Site
												{
													OFFSET 212.550781 0.000000 0.625752
												}
											}
										}
									}
								}
							}
						}
					}
				}
			}
		}
	}
	JOINT mixamorig:RightUpLeg
	{
		OFFSET -8.207787 -6.751648 -1.599560
		CHANNELS 6 Xposition Yposition Zposition Xrotation Yrotation Zrotation
		JOINT mixamorig:RightLeg
		{
			OFFSET -0.000002 -44.370117 0.345942
			CHANNELS 6 Xposition Yposition Zposition Xrotation Yrotation Zrotation
			JOINT mixamorig:RightFoot
			{
				OFFSET 0.000003 -44.423679 -3.043532
				CHANNELS 6 Xposition Yposition Zposition Xrotation Yrotation Zrotation
				JOINT mixamorig:RightToeBase
				{
					OFFSET -0.000002 -8.728671 10.710558
					CHANNELS 6 Xposition Yposition Zposition Xrotation Yrotation Zrotation
					JOINT mixamorig:RightToe_End
					{
						OFFSET -0.000001 -0.000679 9.278119
						CHANNELS 6 Xposition Yposition Zposition Xrotation Yrotation Zrotation
						End Site
						{
							OFFSET 0.000000 -0.067690 927.812134
						}
					}
				}
			}
		}
	}
	JOINT mixamorig:LeftUpLeg
	{
		OFFSET 8.207793 -6.751686 -1.599556
		CHANNELS 6 Xposition Yposition Zposition Xrotation Yrotation Zrotation
		JOINT mixamorig:LeftLeg
		{
			OFFSET -0.000004 -44.370014 0.346954
			CHANNELS 6 Xposition Yposition Zposition Xrotation Yrotation Zrotation
			JOINT mixamorig:LeftFoot
			{
				OFFSET -0.000001 -44.423672 -3.044401
				CHANNELS 6 Xposition Yposition Zposition Xrotation Yrotation Zrotation
				JOINT mixamorig:LeftToeBase
				{
					OFFSET -0.000002 -8.728669 10.710558
					CHANNELS 6 Xposition Yposition Zposition Xrotation Yrotation Zrotation
					JOINT mixamorig:LeftToe_End
					{
						OFFSET -0.000003 -0.000679 9.278133
						CHANNELS 6 Xposition Yposition Zposition Xrotation Yrotation Zrotation
						End Site
						{
							OFFSET 0.000000 -0.068021 927.813477
						}
					}
				}
			}
		}
	}
}
MOTION
Frames: 3
Frame Time: 0.033333
0.000006 104.270477 1.554256 0.000010 0.000003 -0.000113 -0.000005 10.181587 0.131522 0.000001 -0.000003 0.000084 -0.000000 9.893967 -1.470711 0.000001 0.000000 -0.000000 -0.000000 9.220802 -1.370642 0.000000 -0.000000 -0.000000 0.000001 16.740433 -2.049030 0.000000 -0.000000 -0.000000 0.000000 9.617859 1.685014 0.000000 0.000000 0.000000 0.000002 22.037384 7.501101 0.000000 -0.000000 0.000000 -4.569968 11.014880 -2.160881 0.000008 0.000001 -0.000038 -10.592868 -0.524771 -2.231886 76.349514 32.157828 -25.536793 -27.841515 0.000008 0.000559 -47.725209 107.591810 62.290355 -28.328814 -0.000005 0.000028 -0.000322 -0.000046 0.000007 -2.464422 -1.573867 2.682362 -38.072550 -157.770485 12.199957 -3.215265 -1.872564 1.924654 152.282305 32.790591 13.939818 -2.654938 -1.527865 1.513066 146.054293 27.485547 -32.820883 -2.018850 -1.152001 1.108057 -0.000002 -0.000003 0.000002 -9.108373 -0.517554 2.260148 101.279438 15.268939 -18.617993 -3.700061 0.000310 0.001511 98.165726 11.429049 -13.145173 -2.850072 0.000384 -0.000254 98.010612 8.473413 -9.742598 -2.772156 -0.000001 -0.000021 -0.000000 -0.000000 0.000000 -9.532575 0.000277 0.000256 97.945159 14.768057 -17.103407 -3.700059 0.000340 0.003984 97.508511 10.873433 -12.283186 -2.950043 0.000335 -0.001801 98.649986 9.723907 -11.297404 -2.946631 0.000004 -0.000155 0.000002 -0.000003 -0.000000 -9.103702 -0.042755 -1.864863 96.067594 17.357396 -19.216047 -3.379349 0.000302 -0.000777 99.429755 11.817984 -13.944312 -2.889744 0.000346 0.000657 103.321774 7.787407 -9.895956 -2.638812 -0.000015 0.000942 0.000001 0.000001 -0.000002 -8.076759 -0.486414 -3.806044 80.214691 19.445443 -16.293467 -3.600058 0.000261 -0.003514 86.689232 11.936906 -10.920606 -2.100021 0.000313 -0.005481 89.613578 6.871987 -6.604253 -2.115765 -0.000053 -0.003680 0.000001 0.000000 -0.000005 4.570446 11.014691 -2.160851 -0.000018 0.000010 -0.000021 10.592378 -0.524491 -2.232341 74.602331 -3.476864 2.649204 27.841812 0.000059 -0.000218 90.117154 -70.817594 70.928420 28.328838 -0.000013 0.000017 0.000022 -0.000089 0.000000 2.466249 -1.575966 2.681795 -168.420239 -0.460615 59.861185 3.217875 -1.871884 1.916454 161.547894 -19.009719 53.902985 2.656105 -1.528701 1.514498 134.683421 -29.287667 63.268923 2.020890 -1.154068 1.115140 -0.000001 0.000003 0.000006 9.109370 -0.517897 2.259737 73.962889 -19.500567 14.736468 3.700045 0.000092 -0.000436 71.132288 -19.414551 13.960429 2.850058 0.000127 0.000224 68.106145 -15.867820 10.760767 2.774884 -0.000014 -0.000026 0.000003 0.000001 0.000001 9.533449 0.000183 -0.000084 71.884490 -18.821549 13.697278 3.700053 0.000114 -0.000357 75.258009 -16.745763 12.944594 2.950065 0.000114 -0.000199 74.826573 -17.992165 13.812058 2.952852 -0.000010 0.000066 -0.000001 -0.000002 0.000003 9.104589 -0.042904 -1.865231 69.729135 -17.267931 12.078792 3.150050 0.000154 -0.000085 74.434104 -15.486568 11.794001 2.950029 0.000135 -0.000068 76.460245 -15.561645 12.289135 2.644319 0.000031 0.000055 -0.000001 0.000001 -0.000000 8.077812 -0.486770 -3.806400 59.444263 -17.595474 10.454839 3.599979 0.000128 0.014595 60.749902 -16.366260 9.957108 2.100044 0.000114 0.007555 63.503315 -15.091489 9.691749 2.125497 -0.000022 0.007515 -0.000002 0.000003 0.000006 -8.207786 -6.751667 -1.599560 -0.077001 -0.000003 0.000080 -0.000002 -44.370110 0.345938 0.153719 -0.000000 -0.000000 0.000000 -44.423679 -3.043532 -0.076700 0.000000 -0.000002 -0.000006 -8.728667 10.710559 -0.000009 -0.000000 -0.000000 -0.000001 -0.000679 9.278123 0.000000 -0.000000 -0.000000 8.207792 -6.751710 -1.599556 -0.074518 -0.000003 0.000081 -0.000002 -44.370014 0.346960 0.148822 0.000002 0.000000 -0.000001 -44.423664 -3.044403 -0.074314 0.000000 -0.000002 -0.000004 -8.728671 10.710558 0.000007 -0.000000 -0.000000 0.000000 -0.000680 9.278137 -0.000000 0.000000 -0.000001 
0.000006 104.270477 1.554256 0.000010 0.000003 -0.000113 -0.000005 10.181587 0.131522 0.000001 -0.000003 0.000084 -0.000000 9.893967 -1.470711 0.000001 0.000000 -0.000000 -0.000000 9.220802 -1.370642 0.000000 -0.000000 -0.000000 0.000001 16.740433 -2.049030 0.000000 -0.000000 -0.000000 0.000000 9.617859 1.685014 0.000000 0.000000 0.000000 0.000002 22.037384 7.501101 0.000000 -0.000000 0.000000 -4.569968 11.014880 -2.160881 0.000008 0.000001 -0.000038 -10.592865 -0.524800 -2.231867 76.647229 37.484208 -30.025826 -27.841518 -0.000005 0.000565 -45.380675 106.066807 58.106523 -28.328825 0.000021 0.000029 -0.000323 -0.000044 0.000009 -2.464399 -1.573830 2.682328 -43.342430 -156.674759 -0.024460 -3.215240 -1.872513 1.924602 147.423664 33.477919 28.731918 -2.654964 -1.527879 1.513069 147.275285 27.793204 -27.491165 -2.018834 -1.152014 1.108056 -0.000004 -0.000005 0.000002 -9.108362 -0.517541 2.260124 100.071492 14.236870 -17.005955 -3.700056 0.000316 0.001506 97.058245 12.069057 -13.615287 -2.850096 0.000369 -0.000267 95.283331 10.224848 -11.206974 -2.772164 -0.000015 -0.000018 -0.000000 -0.000001 0.000000 -9.532579 0.000282 0.000243 95.941263 13.539746 -15.159525 -3.700051 0.000340 0.003974 95.852689 10.574607 -11.603537 -2.950063 0.000343 -0.001790 95.834842 10.581731 -11.702923 -2.946624 0.000014 -0.000154 -0.000000 -0.000000 -0.000000 -9.103691 -0.042750 -1.864872 94.537878 16.139846 -17.404073 -3.379346 0.000320 -0.000785 98.356705 9.786043 -11.339342 -2.889755 0.000346 0.000685 102.355186 7.903650 -9.871178 -2.638789 -0.000014 0.000941 0.000001 0.000002 0.000001 -8.076750 -0.486399 -3.806047 79.019763 20.080543 -16.483898 -3.600044 0.000269 -0.003539 82.770329 10.053055 -8.543180 -2.100029 0.000309 -0.005520 86.291647 5.434489 -4.889025 -2.115783 -0.000039 -0.003680 -0.000008 0.000002 -0.000006 4.570446 11.014691 -2.160851 -0.000018 0.000010 -0.000021 10.592388 -0.524479 -2.232341 74.653032 -8.513307 6.496733 27.841810 0.000054 -0.000203 89.883753 -72.427954 72.317298 28.328856 -0.000029 0.000023 0.000019 -0.000089 -0.000000 2.466176 -1.575833 2.681780 -166.495041 -27.847045 14.683013 3.217879 -1.871951 1.916475 158.377866 -14.933225 73.858565 2.656087 -1.528724 1.514522 134.669255 -29.312870 68.637274 2.020911 -1.154069 1.115147 -0.000003 0.000006 0.000001 9.109375 -0.517900 2.259750 76.381261 -22.926805 18.116822 3.700056 0.000114 -0.000444 72.802932 -16.111967 11.928306 2.850053 0.000143 0.000211 71.198923 -12.507320 8.970587 2.774890 -0.000032 -0.000024 -0.000000 -0.000000 -0.000001 9.533465 0.000152 -0.000061 73.077977 -22.638122 16.866698 3.700044 0.000137 -0.000358 75.449200 -13.996827 10.847079 2.950029 0.000144 -0.000197 74.998872 -11.724647 9.011629 2.952868 -0.000015 0.000066 -0.000002 0.000000 -0.000001 9.104586 -0.042907 -1.865212 71.466721 -21.920751 15.865636 3.150035 0.000154 -0.000087 74.677962 -15.753300 12.050894 2.950007 0.000123 -0.000070 74.087786 -11.417177 8.630799 2.644333 0.000015 0.000054 -0.000000 -0.000001 -0.000000 8.077842 -0.486780 -3.806393 61.986644 -22.997372 14.329238 3.600023 0.000094 0.014599 61.109730 -19.402735 11.861676 2.100011 0.000121 0.007559 62.443502 -13.329544 8.408542 2.125499 0.000001 0.007509 0.000001 0.000001 -0.000001 -8.207786 -6.751667 -1.599560 -0.077001 -0.000003 0.000080 -0.000002 -44.370110 0.345938 0.153719 -0.000000 -0.000000 0.000000 -44.423679 -3.043532 -0.076700 0.000000 -0.000002 -0.000006 -8.728667 10.710559 -0.000009 -0.000000 -0.000000 -0.000001 -0.000679 9.278123 0.000000 -0.000000 -0.000000 8.207792 -6.751710 -1.599556 -0.074518 -0.000003 0.000081 -0.000002 -44.370014 0.346960 0.148822 0.000002 0.000000 -0.000001 -44.423664 -3.044403 -0.074314 0.000000 -0.000002 -0.000004 -8.728671 10.710558 0.000007 -0.000000 -0.000000 0.000000 -0.000680 9.278137 -0.000000 0.000000 -0.000001 
0.000006 104.270477 1.554256 0.000010 0.000003 -0.000113 -0.000005 10.181587 0.131522 0.000001 -0.000003 0.000084 -0.000000 9.893967 -1.470711 0.000001 0.000000 -0.000000 -0.000000 9.220802 -1.370642 0.000000 -0.000000 -0.000000 0.000001 16.740433 -2.049030 0.000000 -0.000000 -0.000000 0.000000 9.617859 1.685014 0.000000 0.000000 0.000000 0.000002 22.037384 7.501101 0.000000 -0.000000 0.000000 -4.569968 11.014880 -2.160881 0.000008 0.000001 -0.000038 -10.592852 -0.524812 -2.231826 76.882378 43.092063 -34.802816 -27.841522 0.000004 0.000561 -45.554022 103.973770 56.487591 -28.328829 0.000017 0.000023 -0.000318 -0.000044 0.000007 -2.464394 -1.573828 2.682337 -42.295748 -156.411851 2.262990 -3.215241 -1.872526 1.924631 148.840204 33.544746 25.705031 -2.654951 -1.527871 1.513055 147.470601 27.577522 -29.492081 -2.018838 -1.152001 1.108048 0.000001 -0.000006 0.000004 -9.108374 -0.517548 2.260114 99.868178 15.178851 -18.058624 -3.700064 0.000313 0.001503 96.725471 12.659993 -14.199112 -2.850085 0.000362 -0.000266 94.584207 10.551964 -11.425301 -2.772183 -0.000001 -0.000028 0.000001 -0.000002 -0.000001 -9.532583 0.000278 0.000241 96.141360 14.913187 -16.737908 -3.700056 0.000316 0.003989 96.626638 11.037561 -12.279251 -2.950059 0.000329 -0.001804 96.022105 10.839154 -12.026556 -2.946617 -0.000000 -0.000154 -0.000001 0.000001 0.000000 -9.103697 -0.042758 -1.864864 94.853542 17.839325 -19.340797 -3.379326 0.000313 -0.000771 98.554773 10.360896 -12.044904 -2.889760 0.000340 0.000682 102.354196 8.031964 -10.030144 -2.638793 -0.000000 0.000941 0.000000 0.000001 -0.000000 -8.076752 -0.486401 -3.806051 79.463555 22.016918 -18.236593 -3.600048 0.000282 -0.003544 83.087359 11.137338 -9.548967 -2.100019 0.000319 -0.005516 86.351964 5.931929 -5.359588 -2.115758 -0.000055 -0.003676 0.000003 0.000002 -0.000001 4.570446 11.014691 -2.160851 -0.000018 0.000010 -0.000021 10.592435 -0.524459 -2.232393 74.573522 -23.628817 18.099204 27.841818 0.000047 -0.000192 89.611221 -75.301606 74.926007 28.328842 -0.000027 0.000022 0.000018 -0.000089 -0.000001 2.466188 -1.575819 2.681777 -164.540446 -26.471732 17.082532 3.217855 -1.871972 1.916519 156.724974 -14.178141 80.054906 2.656116 -1.528727 1.514531 134.956615 -29.178582 68.703876 2.020895 -1.154067 1.115147 -0.000002 0.000002 0.000004 9.109396 -0.517894 2.259752 79.358397 -24.215264 20.171038 3.700062 0.000113 -0.000472 76.078308 -16.827291 13.216143 2.850045 0.000169 0.000208 74.765149 -12.715779 9.731422 2.774884 -0.000046 -0.000030 0.000000 0.000000 0.000001 9.533477 0.000161 -0.000075 74.547116 -23.063204 17.645220 3.700059 0.000143 -0.000385 77.690991 -13.633590 10.995525 2.950033 0.000151 -0.000205 77.311751 -11.346788 9.089175 2.952851 -0.000016 0.000065 -0.000000 -0.000002 -0.000000 9.104599 -0.042904 -1.865205 72.776390 -21.986975 16.295860 3.150051 0.000159 -0.000084 76.149922 -14.819528 11.636043 2.950005 0.000133 -0.000076 75.185957 -10.546480 8.130507 2.644335 0.000046 0.000059 0.000000 0.000001 -0.000001 8.077854 -0.486778 -3.806392 62.831368 -22.873487 14.487963 3.600013 0.000116 0.014583 62.185157 -18.581154 11.607103 2.100024 0.000108 0.007556 62.784479 -12.719934 8.087133 2.125483 -0.000014 0.007514 0.000005 -0.000005 -0.000000 -8.207786 -6.751667 -1.599560 -0.077001 -0.000003 0.000080 -0.000002 -44.370110 0.345938 0.153719 -0.000000 -0.000000 0.000000 -44.423679 -3.043532 -0.076700 0.000000 -0.000002 -0.000006 -8.728667 10.710559 -0.000009 -0.000000 -0.000000 -0.000001 -0.000679 9.278123 0.000000 -0.000000 -0.000000 8.207792 -6.751710 -1.599556 -0.074518 -0.000003 0.000081 -0.000002 -44.370014 0.346960 0.148822 0.000002 0.000000 -0.000001 -44.423664 -3.044403 -0.074314 0.000000 -0.000002 -0.000004 -8.728671 10.710558 0.000007 -0.000000 -0.000000 0.000000 -0.000680 9.278137 -0.000000 0.000000 -0.000001 
